<svg xmlns="http://www.w3.org/2000/svg" viewBox="0 0 1480 645"><defs><style>.cls-1,.cls-6,.cls-8,.cls-9{fill:none;}.cls-1,.cls-6{stroke:#3fa9f5;}.cls-1,.cls-10,.cls-6,.cls-8,.cls-9{stroke-miterlimit:10;}.cls-2{fill:#e89800;}.cls-3{fill:#12b1ff;}.cls-10,.cls-4{fill:#fff;}.cls-5{fill:#ffc21b;}.cls-6,.cls-9{stroke-width:4px;}.cls-7{fill:#ff76cf;}.cls-8,.cls-9{stroke:#ff7bac;}.cls-10{stroke:#fff;stroke-width:5px;}</style></defs><g id="MPOPO"><g id="tie"><path class="cls-1" d="M337.49,810.22l30.34,12.83a29.33,29.33,0,0,0,3.41,1.2l30.95,9a29.76,29.76,0,0,0,2.9.69l20.8,3.88" transform="translate(-169.5 -240.5)"/><path class="cls-2" d="M440.49,839.57a8.49,8.49,0,0,0-2-.07s-8.4-1.46-19.77-3.63C421.54,832.34,438.66,812.1,440.49,839.57Z" transform="translate(-169.5 -240.5)"/><path class="cls-2" d="M418.29,835.78l.44.09-.39.5C418.33,836.17,418.31,836,418.29,835.78Z" transform="translate(-169.5 -240.5)"/><path class="cls-2" d="M388.76,829.33s27.06-22.79,29.53,6.45c-9-1.7-19.7-3.84-29.62-6Z" transform="translate(-169.5 -240.5)"/><path class="cls-2" d="M388.76,829.33l-.09.42c-18.63-4.12-34.37-8.45-30-10.56C358.71,819.19,386,800.15,388.76,829.33Z" transform="translate(-169.5 -240.5)"/><path class="cls-2" d="M500,839.57a8.49,8.49,0,0,1,2-.07s8.4-1.46,19.77-3.63C518.91,832.34,501.79,812.1,500,839.57Z" transform="translate(-169.5 -240.5)"/><path class="cls-2" d="M522.16,835.78l-.44.09.39.5C522.12,836.17,522.14,836,522.16,835.78Z" transform="translate(-169.5 -240.5)"/><path class="cls-2" d="M551.69,829.33s-27.06-22.79-29.53,6.45c9-1.7,19.7-3.84,29.62-6Z" transform="translate(-169.5 -240.5)"/><path class="cls-2" d="M551.69,829.33l.09.42c18.63-4.12,34.37-8.45,30-10.56C581.74,819.19,554.43,800.15,551.69,829.33Z" transform="translate(-169.5 -240.5)"/><path class="cls-3" d="M768.5,561l-5.73,45.7L715.5,640.5l29.47-112h0C759.65,548.12,768.5,561,768.5,561Z" transform="translate(-169.5 -240.5)"/><path class="cls-3" d="M762.77,606.72,768.5,561s-8.85-12.9-23.52-32.5C681.66,444,509.78,234.75,470.66,397.77l-1.16-.27C423.64,189.14,172.34,554.78,170.81,557h0l-.38,0q-.42-8-.42-16c0-165.69,134.31-300,300-300S770,375.31,770,541A300.21,300.21,0,0,1,762.77,606.72Z" transform="translate(-169.5 -240.5)"/><path class="cls-4" d="M630,468H613.86l-99.08-45.74C559.41,349.59,630,468,630,468Z" transform="translate(-169.5 -240.5)"/><path class="cls-4" d="M613.86,468H497c5.15-20.09,11.18-35,17.78-45.74Z" transform="translate(-169.5 -240.5)"/><polygon class="cls-5" points="300.05 256.26 333.5 301.88 300.05 347.5 299.79 347.15 300 347 300 256.33 300.05 256.26"/><polygon class="cls-2" points="300 256.33 300 347 292 302 299.93 256.43 300 256.33"/><polygon class="cls-4" points="300 256 300 256.33 299.93 256.43 300 256"/><polygon class="cls-2" points="292 302 300 347 299.79 347.15 266.59 301.88 299.93 256.43 292 302"/><path class="cls-4" d="M436,468H337.49l81.92-43.75C425.55,434.82,431.16,449.13,436,468Z" transform="translate(-169.5 -240.5)"/><path class="cls-4" d="M419.41,424.25,337.49,468H303S374.86,347.47,419.41,424.25Z" transform="translate(-169.5 -240.5)"/><path class="cls-1" d="M170.42,557q-.42-8-.42-16c0-165.69,134.31-300,300-300S770,375.31,770,541a300.21,300.21,0,0,1-7.23,65.72C732.81,740.8,613.11,841,470,841,309.69,841,178.76,715.27,170.42,557Z" transform="translate(-169.5 -240.5)"/><path class="cls-6" d="M303,468s71.86-120.53,116.41-43.75c6.14,10.57,11.75,24.88,16.59,43.75" transform="translate(-169.5 -240.5)"/><path class="cls-6" d="M630,468s-70.59-118.41-115.22-45.74C508.18,433,502.15,447.91,497,468" transform="translate(-169.5 -240.5)"/><polyline class="cls-1" points="299.93 256.43 266.59 301.88 299.79 347.15 300.05 347.5 333.5 301.88 300.05 256.26 300 256.33"/><path class="cls-3" d="M468.4,604.6" transform="translate(-169.5 -240.5)"/><polygon class="cls-3" points="322.97 376.94 314.94 362.5 286.06 362.5 278.03 376.94 322.97 376.94"/><polygon class="cls-3" points="300.5 383.36 324.57 383.36 332.6 399.41 300.5 399.41 300.5 383.36"/><polygon class="cls-3" points="300.5 383.36 276.43 383.36 268.4 399.41 300.5 399.41 300.5 383.36"/><polygon class="cls-3" points="300.5 460.4 300.5 399.41 332.6 399.41 300.5 492.5 300.5 460.4"/><polygon class="cls-3" points="300.5 460.4 300.5 399.41 268.4 399.41 300.5 492.5 300.5 460.4"/></g></g><g id="FPOPO"><path class="cls-7" d="M1649,585a300.21,300.21,0,0,1-7.23,65.72l5.73-45.7s-8.85-12.9-23.52-32.5c-63.32-84.54-235.2-293.77-274.32-130.75l-1.16-.27C1302.64,233.14,1051.34,598.78,1049.81,601h0l-.38,0q-.42-8-.42-16c0-165.69,134.31-300,300-300S1649,419.31,1649,585Z" transform="translate(-169.5 -240.5)"/><path class="cls-7" d="M1647.5,605l-5.73,45.7L1594.5,684.5l29.47-112h0C1638.65,592.12,1647.5,605,1647.5,605Z" transform="translate(-169.5 -240.5)"/><path class="cls-4" d="M1624,572.52h0L1492.86,512H1509s-70.59-118.41-115.22-45.74l-45-20.76c.28-1.27.56-2.51.86-3.73C1388.78,278.75,1560.66,488,1624,572.52Z" transform="translate(-169.5 -240.5)"/><path class="cls-4" d="M1509,512h-16.14l-99.08-45.74C1438.41,393.59,1509,512,1509,512Z" transform="translate(-169.5 -240.5)"/><path class="cls-4" d="M1492.86,512H1376c5.15-20.09,11.18-35,17.78-45.74Z" transform="translate(-169.5 -240.5)"/><polygon class="cls-5" points="1179.05 300.26 1212.5 345.88 1179.05 391.5 1178.79 391.15 1179 391 1179 300.33 1179.05 300.26"/><polygon class="cls-2" points="1179 300.33 1179 391 1171 346 1178.93 300.43 1179 300.33"/><polygon class="cls-4" points="1179 300 1179 300.33 1178.93 300.43 1179 300"/><polygon class="cls-2" points="1171 346 1179 391 1178.79 391.15 1145.59 345.88 1178.93 300.43 1171 346"/><path class="cls-4" d="M1348.5,441.5l-50.09,26.75C1253.86,391.47,1182,512,1182,512h34.49l-166.68,89C1051.34,598.78,1302.64,233.14,1348.5,441.5Z" transform="translate(-169.5 -240.5)"/><path class="cls-4" d="M1315,512h-98.51l81.92-43.75C1304.55,478.82,1310.16,493.13,1315,512Z" transform="translate(-169.5 -240.5)"/><path class="cls-4" d="M1298.41,468.25,1216.49,512H1182S1253.86,391.47,1298.41,468.25Z" transform="translate(-169.5 -240.5)"/><path class="cls-8" d="M1049.42,601q-.42-8-.42-16c0-165.69,134.31-300,300-300s300,134.31,300,300a300.21,300.21,0,0,1-7.23,65.72C1611.81,784.8,1492.11,885,1349,885,1188.69,885,1057.76,759.27,1049.42,601Z" transform="translate(-169.5 -240.5)"/><path class="cls-9" d="M1182,512s71.86-120.53,116.41-43.75c6.14,10.57,11.75,24.88,16.59,43.75" transform="translate(-169.5 -240.5)"/><path class="cls-9" d="M1509,512s-70.59-118.41-115.22-45.74c-6.6,10.74-12.63,25.65-17.78,45.74" transform="translate(-169.5 -240.5)"/><polyline class="cls-8" points="1178.93 300.43 1145.59 345.88 1178.79 391.15 1179.05 391.5 1212.5 345.88 1179.05 300.26 1179 300.33"/><path class="cls-2" d="M1319.49,883.57a8.49,8.49,0,0,0-2-.07s-8.4-1.46-19.77-3.63C1300.54,876.34,1317.66,856.1,1319.49,883.57Z" transform="translate(-169.5 -240.5)"/><path class="cls-2" d="M1297.29,879.78l.44.09-.39.5C1297.33,880.17,1297.31,880,1297.29,879.78Z" transform="translate(-169.5 -240.5)"/><path class="cls-2" d="M1267.76,873.33s27.06-22.79,29.53,6.45c-9-1.7-19.7-3.84-29.62-6Z" transform="translate(-169.5 -240.5)"/><path class="cls-2" d="M1267.76,873.33l-.09.42c-18.63-4.12-34.37-8.45-30-10.56C1237.71,863.19,1265,844.15,1267.76,873.33Z" transform="translate(-169.5 -240.5)"/><path class="cls-2" d="M1379,883.57a8.49,8.49,0,0,1,2-.07s8.4-1.46,19.77-3.63C1397.91,876.34,1380.79,856.1,1379,883.57Z" transform="translate(-169.5 -240.5)"/><path class="cls-2" d="M1401.16,879.78l-.44.09.39.5C1401.12,880.17,1401.14,880,1401.16,879.78Z" transform="translate(-169.5 -240.5)"/><path class="cls-2" d="M1430.69,873.33s-27.06-22.79-29.53,6.45c9-1.7,19.7-3.84,29.62-6Z" transform="translate(-169.5 -240.5)"/><path class="cls-2" d="M1430.69,873.33l.09.42c18.63-4.12,34.37-8.45,30-10.56C1460.74,863.19,1433.43,844.15,1430.69,873.33Z" transform="translate(-169.5 -240.5)"/><g id="Banti"><polygon class="cls-10" points="1068.82 117.67 1104.09 117.19 1092.52 97.25 1065.93 112.69 1068.82 117.67"/><polygon class="cls-10" points="1062.07 106.04 1079.97 75.65 1091.55 95.59 1064.96 111.03 1062.07 106.04"/><polygon class="cls-10" points="1047.22 130.22 1029.32 160.61 1017.74 140.67 1044.33 125.23 1047.22 130.22"/><polygon class="cls-10" points="1040.47 118.58 1005.2 119.07 1016.78 139.01 1043.36 123.57 1040.47 118.58"/><polygon class="cls-10" points="1063.84 120.57 1057.09 108.94 1045.45 115.69 1051.24 125.66 1052.21 127.32 1063.84 120.57 1063.84 120.57"/></g></g></svg>