<svg xmlns="http://www.w3.org/2000/svg" viewBox="0 0 612 612"><defs><style>.cls-1,.cls-6,.cls-7,.cls-8{fill:none;stroke:#3fa9f5;stroke-miterlimit:10;}.cls-2{fill:#e89800;}.cls-3{fill:#12b1ff;}.cls-4{fill:#fff;}.cls-5{fill:#ffc21b;}.cls-6{stroke-width:12px;}.cls-7{stroke-width:8px;}.cls-8{stroke-width:6px;}</style></defs><g id="Layer_2" data-name="Layer 2"><g id="MPOPO"><g id="tie"><path class="cls-1" d="M173.49,575.22l30.34,12.83a29.33,29.33,0,0,0,3.41,1.2l30.95,9a29.76,29.76,0,0,0,2.9.69l20.8,3.88"/><path class="cls-2" d="M276.49,597.57a8.49,8.49,0,0,0-2-.07s-8.4-1.46-19.77-3.63C257.54,590.34,274.66,570.1,276.49,597.57Z"/><path class="cls-2" d="M254.29,593.78l.44.09-.39.5C254.33,594.17,254.31,594,254.29,593.78Z"/><path class="cls-2" d="M224.76,587.33s27.06-22.79,29.53,6.45c-9-1.7-19.7-3.84-29.62-6Z"/><path class="cls-2" d="M224.76,587.33l-.09.42c-18.63-4.12-34.37-8.45-30-10.56C194.71,577.19,222,558.15,224.76,587.33Z"/><path class="cls-2" d="M336,597.57a8.49,8.49,0,0,1,2-.07s8.4-1.46,19.77-3.63C354.91,590.34,337.79,570.1,336,597.57Z"/><path class="cls-2" d="M358.16,593.78l-.44.09.39.5C358.12,594.17,358.14,594,358.16,593.78Z"/><path class="cls-2" d="M387.69,587.33s-27.06-22.79-29.53,6.45c9-1.7,19.7-3.84,29.62-6Z"/><path class="cls-2" d="M387.69,587.33l.09.42c18.63-4.12,34.37-8.45,30-10.56C417.74,577.19,390.43,558.15,387.69,587.33Z"/><path class="cls-3" d="M600.5,325l-5.73,45.7L547.5,404.5l29.47-112h0C591.65,312.12,600.5,325,600.5,325Z"/><path class="cls-3" d="M598.77,377.72,604.5,332s-8.85-12.9-23.52-32.5C517.66,215,345.78,5.75,306.66,168.77l-1.16-.27C259.64-39.86,8.34,325.78,6.81,328h0l-.38,0q-.42-8-.42-16C6,146.31,140.31,12,306,12S606,146.31,606,312A300.21,300.21,0,0,1,598.77,377.72Z"/><path class="cls-4" d="M466,233H449.86l-99.08-45.74C395.41,114.59,466,233,466,233Z"/><path class="cls-4" d="M449.86,233H333c5.15-20.09,11.18-35,17.78-45.74Z"/><polygon class="cls-5" points="305.55 261.76 339 307.38 305.55 353 305.29 352.65 305.5 352.5 305.5 261.83 305.55 261.76"/><polygon class="cls-2" points="305.5 261.83 305.5 352.5 297.5 307.5 305.43 261.93 305.5 261.83"/><polygon class="cls-4" points="305.5 261.5 305.5 261.83 305.43 261.93 305.5 261.5"/><polygon class="cls-2" points="297.5 307.5 305.5 352.5 305.29 352.65 272.09 307.38 305.43 261.93 297.5 307.5"/><path class="cls-4" d="M272,233H173.49l81.92-43.75C261.55,199.82,267.16,214.13,272,233Z"/><path class="cls-4" d="M255.41,189.25,173.49,233H139S210.86,112.47,255.41,189.25Z"/><path class="cls-6" d="M6.42,322q-.42-8-.42-16C6,140.31,140.31,6,306,6S606,140.31,606,306a300.21,300.21,0,0,1-7.23,65.72C568.81,505.8,449.11,606,306,606,145.69,606,14.76,480.27,6.42,322Z"/><path class="cls-7" d="M139,233s71.86-120.53,116.41-43.75c6.14,10.57,11.75,24.88,16.59,43.75"/><path class="cls-7" d="M466,233s-70.59-118.41-115.22-45.74C344.18,198,338.15,212.91,333,233"/><polyline class="cls-8" points="305.43 261.93 272.09 307.38 305.29 352.65 305.55 353 339 307.38 305.55 261.76 305.5 261.83"/><polygon class="cls-3" points="328.47 382.44 320.44 368 291.56 368 283.53 382.44 328.47 382.44"/><polygon class="cls-3" points="306 388.86 330.07 388.86 338.1 404.91 306 404.91 306 388.86"/><polygon class="cls-3" points="306 388.86 281.93 388.86 273.9 404.91 306 404.91 306 388.86"/><polygon class="cls-3" points="306 465.9 306 404.91 338.1 404.91 306 498 306 465.9"/><polygon class="cls-3" points="306 465.9 306 404.91 273.9 404.91 306 498 306 465.9"/></g></g></g></svg>