<svg id="Capa_1" enable-background="new 0 0 512 512" height="512" viewBox="0 0 512 512" width="512" xmlns="http://www.w3.org/2000/svg"><g><g><path d="m451.5 419.156h-66.292c-1.591 0-3.117-.632-4.243-1.757l-9-9c-2.343-2.343-6.142-2.343-8.485 0l-9 9c-1.125 1.125-2.651 1.757-4.243 1.757h-289.737v-326.311h92.926c1.591 0 3.117.632 4.243 1.757l9 9c2.343 2.343 6.142 2.343 8.485 0l9-9c1.125-1.125 2.651-1.757 4.243-1.757h263.103z" fill="#f3dcb0"/><g><g><path d="m22.5 54.5h53v403h-53z" fill="#ce9775"/><path d="m75.5 53.5h-53v-19.5c0-14.635 11.865-26.5 26.5-26.5 14.636 0 26.5 11.864 26.5 26.5z" fill="#655e67"/><path d="m52.454 53.5v-19.5c0-10.506-6.114-19.583-14.977-23.869 3.485-1.685 7.393-2.631 11.523-2.631 14.635 0 26.5 11.864 26.5 26.5v19.5z" fill="#544f56"/><path d="m84.5 69.5h-71c-3.314 0-6-2.686-6-6v-19c0-3.314 2.686-6 6-6h71c3.314 0 6 2.686 6 6v19c0 3.314-2.686 6-6 6z" fill="#b0aab3"/></g><g><path d="m75.5 458.5h-53v19.5c0 14.636 11.864 26.5 26.5 26.5 14.636 0 26.5-11.864 26.5-26.5z" fill="#655e67"/><path d="m52.454 458.5v19.5c0 10.506-6.114 19.583-14.977 23.869 3.485 1.686 7.393 2.631 11.523 2.631 14.635 0 26.5-11.864 26.5-26.5v-19.5z" fill="#544f56"/><path d="m84.5 442.5h-71c-3.314 0-6 2.686-6 6v19c0 3.314 2.686 6 6 6h71c3.314 0 6-2.686 6-6v-19c0-3.313-2.686-6-6-6z" fill="#b0aab3"/></g></g><g><g><path d="m436.5 54.5h53v403h-53z" fill="#ce9775"/><path d="m489.5 53.5h-53v-19.5c0-14.636 11.864-26.5 26.5-26.5 14.636 0 26.5 11.864 26.5 26.5z" fill="#655e67"/><path d="m466.454 53.5v-19.5c0-10.506-6.114-19.583-14.977-23.869 3.485-1.685 7.393-2.631 11.523-2.631 14.635 0 26.5 11.864 26.5 26.5v19.5z" fill="#544f56"/><path d="m498.5 69.5h-71c-3.314 0-6-2.686-6-6v-19c0-3.314 2.686-6 6-6h71c3.314 0 6 2.686 6 6v19c0 3.314-2.686 6-6 6z" fill="#b0aab3"/><g fill="#c6855b"><path d="m459.5 69.5h30v373h-30z"/><path d="m45.5 69.5h30v373h-30z"/></g></g><g><path d="m489.5 458.5h-53v19.5c0 14.636 11.864 26.5 26.5 26.5 14.636 0 26.5-11.864 26.5-26.5z" fill="#655e67"/><path d="m466.454 458.5v19.5c0 10.506-6.114 19.583-14.977 23.869 3.484 1.686 7.393 2.631 11.523 2.631 14.635 0 26.5-11.864 26.5-26.5v-19.5z" fill="#544f56"/><path d="m498.5 442.5h-71c-3.314 0-6 2.686-6 6v19c0 3.314 2.686 6 6 6h71c3.314 0 6-2.686 6-6v-19c0-3.313-2.686-6-6-6z" fill="#b0aab3"/><g fill="#a199a4"><path d="m498.5 442.5h-30c3.314 0 6 2.687 6 6v19c0 3.313-2.686 6-6 6h30c3.314 0 6-2.687 6-6v-19c0-3.313-2.686-6-6-6z"/><path d="m498.5 38.5h-30c3.314 0 6 2.687 6 6v19c0 3.313-2.686 6-6 6h30c3.314 0 6-2.687 6-6v-19c0-3.313-2.686-6-6-6z"/><path d="m84.5 442.5h-30c3.314 0 6 2.687 6 6v19c0 3.313-2.686 6-6 6h30c3.314 0 6-2.687 6-6v-19c0-3.313-2.686-6-6-6z"/><path d="m84.5 38.5h-30c3.314 0 6 2.687 6 6v19c0 3.313-2.686 6-6 6h30c3.314 0 6-2.687 6-6v-19c0-3.313-2.686-6-6-6z"/></g></g></g></g><path d="m115 153h207.305c4.142 0 7.5-3.358 7.5-7.5s-3.358-7.5-7.5-7.5h-207.305c-4.142 0-7.5 3.358-7.5 7.5s3.358 7.5 7.5 7.5zm282 75h-282c-4.142 0-7.5 3.358-7.5 7.5s3.358 7.5 7.5 7.5h282c4.142 0 7.5-3.358 7.5-7.5s-3.358-7.5-7.5-7.5zm0-45h-282c-4.142 0-7.5 3.358-7.5 7.5s3.358 7.5 7.5 7.5h282c4.142 0 7.5-3.358 7.5-7.5s-3.358-7.5-7.5-7.5zm0-45h-39.695c-4.142 0-7.5 3.358-7.5 7.5s3.358 7.5 7.5 7.5h39.695c4.142 0 7.5-3.358 7.5-7.5s-3.358-7.5-7.5-7.5zm115-74.5v-19c-.021-7.997-7.084-14.334-15.14-13.5-1.524-17.346-16.124-31-33.86-31s-32.335 13.653-33.86 31c-7.961-.563-15.135 5.256-15.14 13.5v19c-.052 7.858 7.04 14.336 15 13.5v8.345h-240.603c-3.606 0-6.996 1.404-9.546 3.954l-7.939 7.939-7.939-7.939c-2.55-2.55-5.94-3.954-9.546-3.954h-70.427v-8.345c7.845.423 15.045-5.25 15-13.5v-19c-.043-7.858-7.037-14.44-15.14-13.5-1.524-17.346-16.124-31-33.86-31s-32.335 13.654-33.86 31c-7.967-.575-15.136 5.265-15.14 13.5v19c-.049 7.858 7.04 14.336 15 13.5v188.008c0 4.143 3.358 7.5 7.5 7.5s7.5-3.357 7.5-7.5v-188.008h38v358h-38v-134.993c0-4.143-3.358-7.5-7.5-7.5s-7.5 3.357-7.5 7.5v134.993c-7.919-.511-14.997 5.317-15 13.5v19c-.056 7.88 7.135 14.417 15.14 13.5 1.525 17.347 16.124 31 33.86 31s32.335-13.653 33.86-31c7.925.556 15.177-5.248 15.14-13.5v-19c-.036-7.791-6.952-14.392-15-13.5v-8.345h267.238c3.607 0 6.998-1.405 9.546-3.954l7.939-7.939 7.937 7.937c2.549 2.552 5.94 3.957 9.548 3.957h43.792v8.344c-7.913-.5-14.996 5.309-15 13.5v19c-.059 7.88 7.135 14.417 15.14 13.5 1.525 17.347 16.124 31 33.86 31s32.335-13.653 33.86-31c7.92.556 15.178-5.248 15.14-13.5v-19c-.01-8.195-7.046-14.093-15-13.5v-358c7.883.532 15.035-5.33 15-13.5zm-49-48.5c9.453 0 17.294 6.947 18.739 16h-37.479c1.447-9.052 9.287-16 18.74-16zm-414 0c9.453 0 17.294 6.947 18.739 16h-37.478c1.446-9.052 9.286-16 18.739-16zm0 482c-9.453 0-17.294-6.947-18.74-16h37.48c-1.446 9.053-9.286 16-18.74 16zm34-31h-68v-16h68zm-68-404v-16h68v16zm370.83 349.656-8.562-8.562c-5.264-5.262-13.828-5.263-19.091 0l-8.561 8.562h-266.616v-311.311h69.805l8.561 8.561c5.264 5.264 13.828 5.264 19.092 0l8.561-8.561h239.981v311.311zm77.17 85.344c-9.453 0-17.294-6.947-18.739-16h37.479c-1.446 9.053-9.286 16-18.74 16zm34-31h-68v-16h68zm-53-31v-358h38v358zm-15-373v-16h68v16zm-32 256h-282c-4.142 0-7.5 3.357-7.5 7.5s3.358 7.5 7.5 7.5h282c4.142 0 7.5-3.357 7.5-7.5s-3.358-7.5-7.5-7.5zm-90 45h-192c-4.142 0-7.5 3.357-7.5 7.5s3.358 7.5 7.5 7.5h192c4.142 0 7.5-3.357 7.5-7.5s-3.358-7.5-7.5-7.5zm90-90h-282c-4.142 0-7.5 3.357-7.5 7.5s3.358 7.5 7.5 7.5h282c4.142 0 7.5-3.357 7.5-7.5s-3.358-7.5-7.5-7.5z"/></g></svg>