<svg id="Layer_1" enable-background="new 0 0 510.319 510.319" height="512" viewBox="0 0 510.319 510.319" width="512" xmlns="http://www.w3.org/2000/svg"><g><g><path d="m405.489 315.309c-8.741 0-15.827-7.086-15.827-15.827v-88.644c0-8.741 7.086-15.827 15.827-15.827s15.827 7.086 15.827 15.827v88.644c.001 8.741-7.086 15.827-15.827 15.827z" fill="#4a696f"/></g><g><path d="m105.119 315.309c-8.741 0-15.827-7.086-15.827-15.827v-88.644c0-8.741 7.086-15.827 15.827-15.827s15.827 7.086 15.827 15.827v88.644c0 8.741-7.086 15.827-15.827 15.827z" fill="#4a696f"/></g><path d="m105.488 195.029v120.261c8.569-.198 15.458-7.192 15.458-15.809v-88.644c0-8.616-6.889-15.61-15.458-15.808z" fill="#293939"/><path d="m405.859 195.029v120.261c8.569-.198 15.458-7.192 15.458-15.809v-88.644c0-8.616-6.889-15.61-15.458-15.808z" fill="#293939"/><g><path d="m301.28 121.246h-91.952c-8.741 0-15.827-7.086-15.827-15.827s7.086-15.827 15.827-15.827h91.952c8.741 0 15.827 7.086 15.827 15.827s-7.086 15.827-15.827 15.827z" fill="#4a696f"/></g><g><path d="m301.28 420.728h-92.241c-8.741 0-15.827-7.086-15.827-15.827s7.086-15.827 15.827-15.827h92.241c8.741 0 15.827 7.086 15.827 15.827s-7.086 15.827-15.827 15.827z" fill="#4a696f"/></g><g><path d="m197.639 210.837h-185.04c-6.456 0-11.689-5.234-11.689-11.69v-187.457c0-6.456 5.233-11.69 11.689-11.69h185.04c6.456 0 11.689 5.234 11.689 11.69v187.458c.001 6.456-5.233 11.689-11.689 11.689z" fill="#ffbd00"/></g><g><g><path d="m197.349 510.319h-185.04c-6.456 0-11.69-5.234-11.69-11.69v-187.458c0-6.456 5.234-11.69 11.69-11.69h185.04c6.456 0 11.69 5.234 11.69 11.69v187.458c0 6.456-5.234 11.69-11.69 11.69z" fill="#0082ff"/></g></g><g><path d="m498.009 210.837h-185.039c-6.456 0-11.69-5.234-11.69-11.69v-187.457c0-6.456 5.234-11.69 11.69-11.69h185.04c6.456 0 11.69 5.234 11.69 11.69v187.458c-.001 6.456-5.235 11.689-11.691 11.689z" fill="#ff5ca8"/></g><g><path d="m498.009 510.319h-185.039c-6.456 0-11.69-5.234-11.69-11.69v-187.458c0-6.456 5.234-11.69 11.69-11.69h185.04c6.456 0 11.69 5.234 11.69 11.69v187.458c-.001 6.456-5.235 11.69-11.691 11.69z" fill="#ff4b00"/></g><g><path d="m144.82 420.728h-79.982c-8.741 0-15.827-7.086-15.827-15.827s7.086-15.827 15.827-15.827h79.982c8.741 0 15.827 7.086 15.827 15.827s-7.086 15.827-15.827 15.827z" fill="#f6efea"/></g><path d="m197.639 0h-92.151v210.837h92.151c6.456 0 11.689-5.234 11.689-11.69v-187.457c.001-6.456-5.233-11.69-11.689-11.69z" fill="#ff8b00"/><path d="m197.349 299.482h-92.151v210.837h92.151c6.456 0 11.689-5.234 11.689-11.69v-187.458c.001-6.456-5.233-11.689-11.689-11.689z" fill="#3a4de2"/><path d="m498.009 0h-92.151v210.837h92.151c6.456 0 11.689-5.234 11.689-11.69v-187.457c.001-6.456-5.233-11.69-11.689-11.69z" fill="#ff1786"/><path d="m498.009 299.482h-92.151v210.837h92.151c6.456 0 11.689-5.234 11.689-11.69v-187.458c.001-6.456-5.233-11.689-11.689-11.689z" fill="#f80000"/><path d="m144.82 389.073h-39.622v31.654h39.622c8.741 0 15.827-7.086 15.827-15.827s-7.086-15.827-15.827-15.827z" fill="#e0d2cd"/><path d="m427.872 404.9 17.086-17.086c6.182-6.181 6.182-16.202 0-22.383-6.18-6.181-16.201-6.181-22.383 0l-17.086 17.086-17.086-17.086c-6.18-6.18-16.202-6.18-22.383 0-6.182 6.181-6.182 16.202 0 22.383l17.086 17.086-17.086 17.086c-6.182 6.18-6.182 16.202 0 22.383 3.09 3.091 7.141 4.636 11.191 4.636s8.101-1.546 11.191-4.636l17.086-17.086 17.086 17.086c3.09 3.09 7.141 4.636 11.191 4.636s8.101-1.546 11.191-4.636c6.182-6.18 6.182-16.202 0-22.383z" fill="#f6efea"/><path d="m444.959 365.431c-6.18-6.181-16.201-6.181-22.383 0l-16.717 16.717v45.503l16.717 16.717c3.09 3.09 7.141 4.636 11.191 4.636s8.101-1.546 11.191-4.636c6.182-6.18 6.182-16.202 0-22.383l-17.086-17.085 17.086-17.086c6.182-6.18 6.182-16.202.001-22.383z" fill="#e0d2cd"/><path d="m145.11 89.379h-24.163v-24.164c0-8.741-7.086-15.827-15.827-15.827s-15.827 7.086-15.827 15.827v24.163h-24.164c-8.741 0-15.827 7.086-15.827 15.827s7.086 15.827 15.827 15.827h24.163v24.164c0 8.741 7.086 15.827 15.827 15.827s15.827-7.086 15.827-15.827v-24.164h24.163c8.741 0 15.827-7.086 15.827-15.827.001-8.74-7.085-15.826-15.826-15.826z" fill="#f6efea"/><path d="m145.11 89.379h-24.163v-24.164c0-8.616-6.889-15.61-15.458-15.809v111.599c8.569-.198 15.458-7.192 15.458-15.809v-24.164h24.163c8.741 0 15.827-7.086 15.827-15.827 0-8.74-7.086-15.826-15.827-15.826z" fill="#e0d2cd"/><g fill="#f6efea"><path d="m444.959 65.95c-6.18-6.182-16.202-6.182-22.383 0l-56.556 56.556c-6.182 6.181-6.182 16.202 0 22.383 3.09 3.091 7.141 4.636 11.191 4.636 4.051 0 8.101-1.545 11.191-4.636l56.556-56.556c6.182-6.182 6.182-16.202.001-22.383z"/><circle cx="377.212" cy="77.141" r="16.273"/><circle cx="433.767" cy="133.697" r="16.273"/></g><g fill="#e0d2cd"><circle cx="433.767" cy="133.251" r="16.273"/><path d="m422.576 65.504-16.717 16.717v44.766l39.1-39.1c6.182-6.181 6.182-16.202 0-22.383-6.181-6.181-16.203-6.181-22.383 0z"/></g></g></svg>