<?xml version="1.0" encoding="utf-8"?>
<!-- Generator: Adobe Illustrator 22.0.0, SVG Export Plug-In . SVG Version: 6.00 Build 0)  -->
<svg version="1.1" id="Layer_1" xmlns="http://www.w3.org/2000/svg" xmlns:xlink="http://www.w3.org/1999/xlink" x="0px" y="0px"
	 viewBox="0 0 147.6 150.9" style="enable-background:new 0 0 147.6 150.9;" xml:space="preserve">
<style type="text/css">
	.st0{fill:#E2B544;}
	.st1{fill:#404041;}
	.st2{fill:#58595B;}
	.st3{fill:#FDFEFF;}
	.st4{fill:#E59EB9;}
	.st5{fill:#F9CB58;}
	.st6{opacity:0.25;fill:#231F20;}
	.st7{fill:#BD1E2D;}
	.st8{opacity:0.25;}
	.st9{fill:#600C18;}
	.st10{fill:#C99B36;}
	.st11{opacity:0.25;fill:#69A2AF;}
	.st12{fill:#AECED6;}
	.st13{fill:#FFFFFF;}
</style>
<g>
	<g>
		<path class="st0" d="M89.3,147.6c0.2,2.3-10.3,3.1-18.8,3c-5,0-9.3-0.3-10.4-0.7c-1.8-0.5-1.1-3.9-0.2-6.7
			c0.7-2.3,1.7-4.3,1.7-4.3l14.8-3.7c0,0,1.8,1.2,4.1,3c0.9,0.7,1.8,1.4,2.8,2.2C86.1,142.9,89.1,145.8,89.3,147.6z"/>
		<path class="st0" d="M44.6,150c-3.2,1-29.6,1.3-29.3-2.4c0.2-2.9,8.3-9.1,11.6-11.4c0.9-0.6,1.4-1,1.4-1l13.5,3.4l1.3,0.3
			c0,0,0.7,1.6,1.4,3.6c0.5,1.4,0.9,3,1.1,4.4C45.8,148.5,45.6,149.7,44.6,150z"/>
		<path class="st1" d="M34.9,38.5c0,0-25.7,21.4-34.1,49.4c-2.1,7-0.1,12.3,6.4,3.1c3.6-5.2,9.4-10.9,18.8-15.2L34.9,38.5z"/>
		<path class="st1" d="M124.4,82.3c-1-0.6-2.2-1.5-3.5-2.8c-3.8-3.6-20.1-9.4-31.3-12.6c-2.4-0.7-4.5-1.2-6.3-1.6L83,46l0-0.5
			L83,40.3l-0.1-6.5c0,0,0.9,0.5,2.5,1.4c1,0.6,2.3,1.4,3.7,2.3c9.2,5.9,26.5,18.7,36.7,36.4c0.2,0.4,0.5,0.8,0.7,1.2
			C129.4,80.4,129.2,85.2,124.4,82.3z"/>
		<path class="st2" d="M92.2,113.6c-1.7,12.6-5.5,20.2-11.9,24.5c-5.1,3.4-11.8,4.8-20.5,5.1c-1.1,0-2.3,0.1-3.5,0.1
			c-4.2,0-8.1-0.3-11.6-0.8c-6.1-0.9-11.3-2.6-15.6-5.1c0,0,0,0,0,0c-0.7-0.4-1.4-0.8-2-1.3c-7.6-5.3-11.6-13.4-11.6-24
			c-0.3-35,19.6-73.6,19.6-73.6l43.2,6.3l5,0.7l2.3,0.3c0,0,2.1,8.9,4.1,21C91.9,81.2,94,100,92.2,113.6z"/>
		<path class="st2" d="M89.1,37.5c-1.8,4.9-3.7,8.3-3.7,8.3S84.5,45.9,83,46c-2.1,0.1-5.5,0.3-9.5,0.3c-11.3,0.1-28.1-1.1-38.6-7.9
			c0,0-3.9-43.1,34.8-38.1c2,0.3,3.9,0.6,5.6,1.1C96.7,7.1,93.2,26.3,89.1,37.5z"/>
		<path class="st3" d="M84.9,17.8c-7.5-4.6-17.7,0.7-16.5,9.2l-4.9,0c0,0,0.9-11.8-7.3-14c-11-3-22.3,12.1-12.2,25.4
			c10.1,13.3,32.4,6.9,38,3.1C89.6,36.4,92.5,22.4,84.9,17.8z"/>
		<g>
			<path class="st1" d="M78.7,29.8c0,0-0.1,0-0.1,0c-0.3-0.1-0.5-0.4-0.4-0.7c0.2-0.8,0.6-3.2-0.2-4.5c-0.2-0.4-0.6-0.6-1-0.7
				c-2.4-0.6-3.9,3.4-3.9,3.4c-0.1,0.3-0.4,0.5-0.8,0.4c-0.3-0.1-0.5-0.5-0.4-0.8c0.1-0.2,1.8-5,5.3-4.2c0.8,0.2,1.4,0.6,1.8,1.3
				c1.2,1.9,0.4,5.2,0.4,5.4C79.2,29.6,79,29.8,78.7,29.8z"/>
		</g>
		<g>
			<path class="st1" d="M57.4,26C57.4,26,57.4,26,57.4,26c-0.4-0.1-0.6-0.4-0.6-0.7c0.1-0.8,0.2-3.3-0.6-4.4
				c-0.3-0.4-0.6-0.6-1.1-0.6c-2.5-0.3-3.5,3.7-3.5,3.8c-0.1,0.3-0.4,0.5-0.7,0.4c-0.3-0.1-0.5-0.4-0.4-0.7c0.1-0.2,1.3-5.1,4.8-4.7
				c0.8,0.1,1.4,0.5,1.9,1.1c1.4,1.8,0.9,5.2,0.9,5.3C58,25.7,57.7,26,57.4,26z"/>
		</g>
		<g>
			<path class="st4" d="M84,33.8c0,0.8-1.4,1.4-3.1,1.4c-1.7,0-3.1-0.6-3.1-1.4c0-0.8,1.4-1.4,3.1-1.4C82.6,32.4,84,33,84,33.8z"/>
		</g>
		<g>
			<path class="st4" d="M49,29c-0.1,0.8-1.6,1.2-3.2,0.9c-1.7-0.3-2.9-1.1-2.8-1.9c0.1-0.8,1.6-1.2,3.2-0.9
				C47.9,27.4,49.1,28.2,49,29z"/>
		</g>
		<path class="st5" d="M72.7,30.7c0,0-3.5,5.1-8,4.8c-4.4-0.3-6.5-6.1-6.6-6.3c0,0,0,0,0,0s5.2-2.9,7.9-3
			C68.7,26.1,72.7,30.7,72.7,30.7z"/>
		<path class="st0" d="M72.7,30.7c0,0-3.5,5.1-8,4.8c-4.4-0.3-6.5-6.1-6.6-6.3C58.4,29.4,64.5,32.8,72.7,30.7z"/>
		<path class="st3" d="M61.9,50.8c13.8,0.3,26.8,17.8,23,49.3c-3.9,31.5-14.2,34.2-30.1,35.1c-16.3,0.9-29-13.2-25.9-38.6
			C31.9,71.1,42.4,50.3,61.9,50.8z"/>
		<path class="st6" d="M125.8,73.9c-0.3,2.7-0.8,5.5-1.4,8.4c-1-0.6-2.2-1.5-3.5-2.8c-3.8-3.6-20.1-9.4-31.3-12.6
			c2.4,14.4,4.5,33.2,2.7,46.8c-1.7,12.6-5.5,20.2-11.9,24.5c0.9,0.7,1.8,1.4,2.8,2.2c-9.8,3.6-12.2,7.8-12.6,10.3
			c-5,0-9.3-0.3-10.4-0.7c-1.8-0.5-1.1-3.9-0.2-6.7c-1.1,0-2.3,0.1-3.5,0.1c-4.2,0-8.1-0.3-11.6-0.8c0.5,1.4,0.9,3,1.1,4.4
			c-7.9-3.2-14.6-7.9-16.7-9.5c0,0,0,0,0,0c-0.4-0.3-0.6-0.4-0.6-0.5c3,1.3,7.9,2,13.5,1.6c12.3-0.8,28.1-6.4,36-20.4
			c11.5-20.3,1.7-68.1,1.7-68.1c-18.4,3.5-30.1-6.6-30.1-6.6c10.9,4.8,18.2,4,23.9,2.8c1.7-0.3,3.2-0.9,4.6-1.6
			c1.9-1,3.6-2.5,4.9-4.5c1-1.4,1.8-3.1,2.4-5.1c0.8-2.5,1.5-5.5,1.9-9c1.5-12.7-5.5-20.4-12-24.7c21.4,5.6,17.9,24.8,13.8,36
			C98.3,43.4,115.6,56.2,125.8,73.9z"/>
		<g>
			<g>
				<path class="st7" d="M70.5,55.1c-1.5,0.7-7.2-4.4-7.2-4.4s-7,2.3-8.1,2c-0.2-0.1-0.3-0.5-0.4-1.1c-0.2-2.8,0.8-9.7,1.8-10
					c1.1-0.3,6.7,5,6.7,5s4-1.9,6.5-2.6c0,0,0,0,0,0c0.9-0.3,1.7-0.4,1.9-0.2C72.7,44.3,72,54.4,70.5,55.1z"/>
			</g>
			<g class="st8">
				<path class="st9" d="M70.5,55.1c-1.5,0.7-7.2-4.4-7.2-4.4s-7,2.3-8.1,2c-0.2-0.1-0.3-0.5-0.4-1.1c2.1,0.3,7.1-1.5,7.1-1.5
					c-0.4-0.9,0.1-2.5,0.2-2.7c0,0.2,0.2,2.8,0.9,2.6c0.7-0.2,1.3-3,1.3-3c0.3,0.7,0.3,1.9,0.3,1.9s2.2,0.4,2,1.2
					c-0.2,0.7-2.5,0-2.6-0.1c0.3,0.2,5.2,3.6,5.8,3.3c0.6-0.3,1.7-8.1,1.5-8.8c-0.2-0.7-1.4-0.6-1.5-0.6c0.9-0.3,1.7-0.4,1.9-0.2
					C72.7,44.3,72,54.4,70.5,55.1z"/>
			</g>
		</g>
	</g>
	<g>
		<path class="st10" d="M120.2,149.2c-4.4,2.2-15,1.9-18.1,1c-3-1-1.6-3,3.5-5.4c2.4-1.1,3.3-3.1,3.6-5.2c0.3-2.5-0.5-5.1-1.1-6.8
			c-0.4-1.1-0.7-1.7-0.7-1.7h9.4c0,0,0.3,0.6,0.7,1.6c1.1,2.4,3,7,3.7,10.8C121.8,146.1,121.7,148.4,120.2,149.2z"/>
		<path class="st11" d="M117.5,132.6c1.1,2.4,3,7,3.7,10.8c-5.4-0.2-9.3-1.8-12-3.8c0.3-2.5-0.5-5.1-1.1-6.8
			C111.6,133,114.7,132.9,117.5,132.6z"/>
		<path class="st0" d="M145.6,140.9c-3.1,5.5-18.9,10.9-20.9,9.5c-2-1.4,5.8-5.9,4.6-9.7c-0.3-1.1-1.4-2.3-2.8-3.6
			c-0.9-0.8-2-1.7-3.1-2.4c-1.3-1-2.7-1.8-3.8-2.5c-1.3-0.8-2.1-1.2-2.1-1.2c4.6-3.7,10.5-3.9,14.2-3.6c2,0.2,3.4,0.5,3.4,0.5
			s0.5,0.3,1.4,0.8c0,0,0,0,0,0c0.9,0.6,2.2,1.4,3.5,2.4C143.5,133.8,147.4,137.6,145.6,140.9z"/>
		<path class="st12" d="M147.6,110.1c-0.1,0.5-2.5,11.4-11.1,18.7h0c-3.3,2.8-7.6,5.1-13.1,5.9c-1.5,0.2-3.1,0.4-4.8,0.4
			c-3.1,0-6.4-0.4-10.2-1.3c-0.8-0.2-1.6-0.4-2.4-0.6c-3.4-1-6.6-2.6-9.4-4.8c-9.4-7.5-15-21.5-15.8-36.9c0-0.4,0-0.7,0-1.1
			c0-0.4,0-0.8,0-1.2c-0.1-2.7,0-5.4,0.3-8.2c0.6-6.5,2-13,4.3-19.1c1.1-2.8,2.3-5.6,3.8-8.2c0,0,0-0.1,0.1-0.1c0,0-0.2-0.9-0.3-2.4
			c0-0.3-0.1-0.6-0.1-1c0-0.1,0-0.1,0-0.2c0-0.2,0-0.4-0.1-0.7c0-0.2,0-0.5,0-0.7c-0.1-1.1-0.1-2.3-0.1-3.6c0-0.4,0-0.9,0-1.3
			c0,0,0-0.1,0-0.1c0-0.4,0-0.9,0.1-1.4c0-0.5,0.1-1,0.1-1.6c0.1-0.5,0.1-1.1,0.2-1.6c0-0.3,0.1-0.5,0.1-0.8
			c0.1-0.8,0.3-1.6,0.5-2.4c0.1-0.2,0.1-0.5,0.2-0.7c0.1-0.2,0.1-0.4,0.2-0.6c0.1-0.2,0.1-0.5,0.2-0.7c0.1-0.5,0.3-0.9,0.5-1.4
			c0.1-0.2,0.2-0.5,0.3-0.7c0.2-0.4,0.3-0.7,0.5-1.1c0.1-0.3,0.3-0.6,0.5-0.9c0.6-1,1.3-2,2-2.9c2-2.3,4.6-4.1,8.2-5
			c8.3-2.1,15-0.7,19.9,2.6c5.8,3.9,8.9,10.4,8.8,16.9c-0.3,13.9-11.8,20.9-11.8,20.9C123.2,121.1,143.3,115.3,147.6,110.1z"/>
		<path class="st13" d="M110.1,60.9c-8.3,2.7-15.6,1.8-20.4-6.7c-0.2-0.2-0.3-0.4-0.5-0.6c0,0,0-0.1,0.1-0.1c0,0-0.2-0.9-0.3-2.4
			c-0.2-1.5-0.3-3.7-0.3-6.1c0-0.9,0-1.8,0.1-2.8c0.3-4.1,1.2-8.6,3.3-12.5c0.6-1,1.3-2,2-2.9c1.6,2.5,3.5,7.4,2.1,12.8l3.9,2.1
			c0,0,1.9-9.8,9.9-10.1C118.1,31.3,121.9,57.1,110.1,60.9z"/>
		<g>
			<path class="st1" d="M108.8,45.2C108.8,45.2,108.8,45.2,108.8,45.2c-0.3,0-0.6-0.3-0.6-0.6c0.1-1.5-0.1-4.7-1.3-5
				c-1.5-0.4-2.5,2.5-2.5,2.5c-0.1,0.3-0.4,0.5-0.7,0.4c-0.3-0.1-0.5-0.4-0.4-0.7c0.1-0.2,1.3-3.9,3.8-3.3c2.4,0.6,2.2,5.6,2.2,6.1
				C109.4,44.9,109.1,45.2,108.8,45.2z"/>
		</g>
		<g>
			<path class="st1" d="M92.9,39.5c0,0-0.1,0-0.1,0c-0.3-0.1-0.4-0.3-0.3-0.6c0.3-1,0.5-2.6-0.1-2.8c-0.5-0.2-1.4,1.2-1.8,2.2
				c-0.1,0.2-0.4,0.4-0.6,0.3c-0.2-0.1-0.4-0.4-0.3-0.6c0.2-0.6,1.5-3.3,3-2.7c1.5,0.6,0.8,3.4,0.6,3.9
				C93.3,39.4,93.2,39.5,92.9,39.5z"/>
		</g>
		<g>
			<path class="st4" d="M111.7,49.9c0,0.8-1.4,1.4-3.1,1.4s-3.1-0.6-3.1-1.4c0-0.8,1.4-1.4,3.1-1.4S111.7,49.1,111.7,49.9z"/>
		</g>
		<path class="st4" d="M90.7,44.5c-0.1,0.7-1,0.9-2,0.4c0-0.9,0-1.8,0.1-2.8c0.1,0,0.3,0.1,0.4,0.2C90.1,42.7,90.8,43.7,90.7,44.5z"
			/>
		<path class="st5" d="M101.9,46.9c0,0-2.4,5.4-6.2,3.9c-3.8-1.5-4.8-7.2-4.8-7.2s4.3-5,7.1-4.1C100.6,40.3,101.9,46.9,101.9,46.9z"
			/>
		<path class="st0" d="M101.9,46.9c0,0-2.4,5.4-6.2,3.9c-3.8-1.5-4.8-7.2-4.8-7.2S92.4,48.6,101.9,46.9z"/>
		<g>
			<g>
				<path class="st7" d="M110.3,28.4c-1.3,0.1-4.2-5.4-4.2-5.4s-5.9-0.2-6.6-0.8c-0.1-0.1-0.1-0.4,0-0.9c0.6-2.1,3.3-7.1,4.1-7
					c0.9,0.1,3.6,5.6,3.6,5.6s3.5-0.3,5.6-0.2c0,0,0,0,0,0c0.8,0.1,1.4,0.2,1.5,0.4C115,20.9,111.6,28.3,110.3,28.4z"/>
			</g>
			<g class="st8">
				<path class="st9" d="M110.3,28.4c-1.3,0.1-4.2-5.4-4.2-5.4s-5.9-0.2-6.6-0.8c-0.1-0.1-0.1-0.4,0-0.9c1.5,0.8,5.8,0.9,5.8,0.9
					c0-0.8,0.8-1.9,0.9-2c-0.1,0.2-0.6,2.2-0.1,2.2c0.5,0.1,1.9-1.9,1.9-1.9c0,0.7-0.3,1.5-0.3,1.5s1.6,0.9,1.2,1.4
					c-0.4,0.5-1.9-0.7-2-0.8c0.2,0.2,2.9,4.2,3.5,4.1c0.5,0,3.5-5.6,3.6-6.2c0.1-0.6-0.9-0.8-1-0.9c0.8,0.1,1.4,0.2,1.5,0.4
					C115,20.9,111.6,28.3,110.3,28.4z"/>
			</g>
		</g>
		<path class="st13" d="M96.7,128.3c-15.4-12.3-20.6-42-11.3-66.5c1.9-0.6,4.3-0.6,7.2,0.3c12,3.9,12.8,42.4,20.1,52.7
			C118,122.3,102.3,132.2,96.7,128.3z"/>
		<path class="st12" d="M111.7,89.3c-12.9,4-23.3,3.2-30.8,1c-3.5-1-6.4-2.3-8.7-3.5h0c-1.6-0.9-2.9-1.7-3.8-2.4
			c-0.6-0.5-1-1.2-1-1.9c0-0.4,0.1-0.7,0.3-1.1c0.5-1,1.7-1.5,2.7-1.2c3.6,0.9,7.2,1.1,10.7,0.7c15.2-1.6,28.5-13.1,28.5-13.1
			l1.5,15.9L111.7,89.3z"/>
		<path class="st11" d="M136.5,128.8c0.9,0.6,2.2,1.4,3.5,2.4c-5.2,4.1-10.3,5.5-13.5,6c-0.9-0.8-2-1.7-3.1-2.4
			c-1.2-0.2-2.2,1.5-13.5-0.6c5-0.9,18.7-4.6,21.8-6.7c8.5-5.7,11-13.7,11-13.7c-25.4,8-27.4-22.8-27.4-22.8
			c-15.8,4.8-27.3,3.1-34.4,0.5c0-0.4,0-0.7,0-1.1c-3.5-1-6.4-2.3-8.7-3.5c2.9,1.1,5.8,1.8,8.6,2.3c12.4,2.1,23.8-0.9,30.3-5.3
			c3.2-2.2,5.3-4.7,5.7-7c1.4-8.3-5-8.9-5-8.9l2.6-4.2c-17.1,3.5-21.6-5.2-21.6-5.2c8.5,9.4,31.5,0,34.7-14.9
			c1.6-7.6-2-14.7-5.3-19.3c5.8,3.9,8.9,10.4,8.8,16.9c-0.3,13.9-11.8,20.9-11.8,20.9c4,58.9,24.1,53.1,28.4,47.9
			C147.5,110.6,145.1,121.6,136.5,128.8z"/>
	</g>
</g>
</svg>
